<svg width="400" height="400" viewBox="0 0 400 400" fill="none" xmlns="http://www.w3.org/2000/svg">
  <rect width="400" height="400" rx="20" fill="#F3F4F6"/>
  <path d="M200 320C266.274 320 320 266.274 320 200C320 133.726 266.274 80 200 80C133.726 80 80 133.726 80 200C80 266.274 133.726 320 200 320Z" fill="#E5E7EB"/>
  <path d="M200 300C255.228 300 300 255.228 300 200C300 144.772 255.228 100 200 100C144.772 100 100 144.772 100 200C100 255.228 144.772 300 200 300Z" fill="#D1D5DB"/>
  <path d="M200 280C244.183 280 280 244.183 280 200C280 155.817 244.183 120 200 120C155.817 120 120 155.817 120 200C120 244.183 155.817 280 200 280Z" fill="#9CA3AF"/>
  <path d="M200 260C233.137 260 260 233.137 260 200C260 166.863 233.137 140 200 140C166.863 140 140 166.863 140 200C140 233.137 166.863 260 200 260Z" fill="#6B7280"/>
  <path d="M230 170C230 186.569 216.569 200 200 200V140C233.137 140 260 166.863 260 200C260 233.137 233.137 260 200 260C166.863 260 140 233.137 140 200H200C200 216.569 186.569 230 170 230C153.431 230 140 216.569 140 200C140 183.431 153.431 170 170 170H230Z" fill="#4B5563"/>
  <circle cx="200" cy="170" r="15" fill="#F3F4F6"/>
  <circle cx="170" cy="230" r="15" fill="#F3F4F6"/>
</svg>